%
M48
M72
T01C0.0315
T02C0.0320
T03C0.0394
T04C0.0400
T05C0.0440
T06C0.1300
%
T01
X10110Y27500
X12000Y28681
T02
X19000Y14000
X20000Y14000
X19000Y28500
X20000Y28500
X19000Y16500
X20000Y16500
X20500Y9000
X19500Y9000
X19000Y26500
X20000Y26500
X19500Y6500
X20500Y6500
X19500Y11500
X20500Y11500
X23000Y26500
X24000Y26500
X16500Y19000
X17500Y19000
X17500Y22000
X16500Y22000
X18500Y19000
X19500Y19000
X18500Y22000
X19500Y22000
X22000Y12000
X22500Y12750
X23000Y12000
X11500Y24500
X11500Y23500
X11500Y18500
X14500Y18500
X11500Y22500
X11500Y21500
X11500Y19500
X11500Y20500
X14500Y19500
X14500Y20500
X14500Y21500
X14500Y22500
X14500Y23500
X14500Y24500
X23500Y7500
X26500Y7500
X23500Y15500
X25500Y15500
X24500Y16500
X25500Y24500
X25500Y21500
X24000Y18000
X27000Y18000
X25000Y28000
X28000Y28000
X23500Y9000
X26500Y9000
X21500Y18500
X21500Y15500
X23500Y10500
X26500Y10500
X24000Y12000
X27000Y12000
X23500Y22000
X23500Y19000
X17000Y24500
X20000Y24500
X25000Y26500
X28000Y26500
X21500Y24500
X24500Y24500
T03
X12000Y26319
T04
X28000Y22000
X28000Y21000
X28000Y20000
X28000Y19000
X28000Y18000
X28000Y17000
X28000Y16000
X28000Y15000
X28000Y13500
X2000Y28500
X2000Y27500
X2000Y26500
X28000Y23500
X28000Y24500
X2000Y4000
X3000Y4000
X4000Y4000
X5000Y4000
X28000Y11500
X28000Y10500
X28000Y9500
T05
X11500Y8500
X11500Y7500
X11500Y6500
X11000Y13500
X11000Y12500
X11000Y11500
X2000Y8500
X2000Y7500
X2000Y6500
X2000Y15500
X2000Y14500
X2000Y13500
X2000Y22500
X2000Y21500
X2000Y20500
T06
X7900Y27500
X17400Y7500
X16900Y12500
X8900Y7500
X8900Y14500
X8900Y21500
M30
