%
M48
M72
T01C0.0240
T02C0.0315
T03C0.0320
T04C0.0394
T05C0.0400
T06C0.0440
T07C0.1300
%
T01
X37000Y15000
X8000Y17750
T02
X3000Y27610
X1819Y29500
T03
X10000Y13500
X11000Y13500
X16500Y9000
X17500Y9000
X13000Y9000
X14000Y9000
X13000Y13500
X14000Y13500
X10000Y10000
X11000Y10000
X20500Y13500
X21500Y13500
X16500Y13500
X17500Y13500
X4500Y25000
X4500Y26000
X16500Y21500
X16500Y20500
X19500Y20500
X19500Y21500
X16500Y19500
X16500Y18500
X19500Y19500
X19500Y18500
X26500Y18000
X26500Y17000
X26500Y12000
X29500Y12000
X26500Y16000
X26500Y15000
X26500Y13000
X26500Y14000
X29500Y13000
X29500Y14000
X29500Y15000
X29500Y16000
X29500Y17000
X29500Y18000
X9500Y30000
X9000Y29250
X8500Y30000
X26500Y24000
X29500Y24000
X2500Y19000
X2500Y21000
X1500Y20000
X21500Y27500
X24500Y27500
X33500Y22000
X33500Y25000
X7500Y23000
X10500Y23000
X26500Y28500
X29500Y28500
X21500Y23000
X24500Y23000
X21500Y30000
X24500Y30000
X13500Y29000
X16500Y29000
X26500Y26500
X29500Y26500
X13500Y26500
X16500Y26500
X7500Y26000
X10500Y26000
X17500Y26500
X20500Y26500
T04
X4181Y29500
T05
X38000Y28500
X38000Y27500
X38000Y26500
X38000Y25500
X38000Y24500
X38000Y23500
X38000Y22500
X38000Y21500
X1000Y15000
X1000Y14000
X1000Y13000
X1000Y25500
X1000Y24500
X38000Y16500
X38000Y17500
X38000Y18500
X37500Y10500
X37500Y11500
X37500Y12500
X37500Y13500
X38000Y30500
T06
X6000Y1500
X7000Y1500
X8000Y1500
X1000Y1500
X2000Y1500
X3000Y1500
X33000Y1500
X34000Y1500
X35000Y1500
X27500Y1500
X28500Y1500
X29500Y1500
X21500Y1500
X22500Y1500
X23500Y1500
T07
X6900Y14000
X7000Y7400
X2000Y7400
X34000Y8400
X28500Y8400
X22500Y8400
M30
